<?xml version="1.0" encoding="utf-8"?>
<!-- Generator: Adobe Illustrator 16.0.0, SVG Export Plug-In . SVG Version: 6.00 Build 0)  -->
<!DOCTYPE svg PUBLIC "-//W3C//DTD SVG 1.1//EN" "http://www.w3.org/Graphics/SVG/1.1/DTD/svg11.dtd">
<svg version="1.1" id="Layer_1" xmlns="http://www.w3.org/2000/svg" xmlns:xlink="http://www.w3.org/1999/xlink" x="0px" y="0px"
	 width="128px" height="128px" viewBox="0 0 128 128" enable-background="new 0 0 128 128" xml:space="preserve">
<path fill="#FFFFFF" d="M118,2H10c-4.418,0-8,3.582-8,8v108c0,4.418,3.582,8,8,8h108c4.418,0,8-3.582,8-8V10
	C126,5.582,122.418,2,118,2z M107.502,65.766H93.376v51.246H72.203V65.768H61.625V48.107h10.578V37.504
	c0-14.407,5.973-22.974,22.943-22.974h14.127v17.662h-8.83c-6.606,0-7.043,2.468-7.043,7.074l-0.024,8.839h15.998L107.502,65.766z"
	/>
</svg>
