<?xml version="1.0" encoding="utf-8"?>
<!-- Generator: Adobe Illustrator 17.0.2, SVG Export Plug-In . SVG Version: 6.00 Build 0)  -->
<!DOCTYPE svg PUBLIC "-//W3C//DTD SVG 1.1//EN" "http://www.w3.org/Graphics/SVG/1.1/DTD/svg11.dtd">
<svg version="1.1" id="Layer_1" xmlns="http://www.w3.org/2000/svg" xmlns:xlink="http://www.w3.org/1999/xlink" x="0px" y="0px"
	 width="690.959px" height="140.568px" viewBox="0 0 690.959 140.568" enable-background="new 0 0 690.959 140.568"
	 xml:space="preserve">
<g>
	<g>
		<path fill="#FFFFFF" d="M9.543,9.533H398.17v121.504H233.686v-20.022h-9.225v20.022H9.543V9.533z M0,140.568h407.713V0H0V140.568z
			"/>
	</g>
	<g>
		<path fill="#FFFFFF" d="M82.691,45.285H72.242L54.07,92.023h10.445l4.771-12.961h16.424l4.707,12.961h10.449L82.691,45.285z
			 M72.096,70.5l5.369-14.648L82.771,70.5H72.096z"/>
	</g>
	<g>
		<polygon fill="#FFFFFF" points="173.432,45.285 173.432,54.563 189.799,54.563 189.799,92.023 199.639,92.023 199.639,54.563 
			216.068,54.563 216.068,45.285 		"/>
	</g>
	<g>
		<polygon fill="#FFFFFF" points="340.906,45.285 329.078,65.218 317.32,45.285 305.879,45.285 324.191,74.863 324.191,92.023 
			334.035,92.023 334.035,74.863 352.344,45.285 		"/>
	</g>
	<g>
		<g>
			<path fill="#FFFFFF" d="M286.287,67.408c-3.043-2.223-7.211-3.239-10.887-4.14c-0.766-0.19-1.516-0.371-2.238-0.563l-0.453-0.112
				c-2.992-0.757-7.1-1.789-7.1-5.367c0-3.83,4.459-4.844,7.092-4.844c2.986,0,6.734,0.894,7.654,5.16l0.025,0.142h9.27
				l-0.004-0.185c-0.314-8.629-6.363-13.574-16.602-13.574c-7.621,0-16.52,3.56-16.52,13.58c0,10.433,9.287,12.665,17.479,14.638
				c0.756,0.182,1.49,0.359,2.215,0.541c4.172,1.088,6.291,3.025,6.291,5.761c0,5.873-7.707,6.17-9.25,6.17
				c-5.416,0-8.357-2.016-9.258-6.348l-0.027-0.142h-9.416l0.01,0.183c0.07,3.708,0.523,5.964,2.904,8.769
				c4.527,5.272,11.701,6.057,15.572,6.057c8.94,0,18.553-4.639,18.553-14.83C291.598,73.972,289.566,69.797,286.287,67.408"/>
		</g>
		<g>
			<path fill="#FFFFFF" d="M151.428,72.146c3.576-2.606,5.793-7.223,5.793-12.038c0-5.211-2.68-10.05-6.998-12.616
				c-3.662-2.206-7.359-2.206-10.938-2.206h-21.084v46.738h9.906V68.919l18.387,23.104h12.002l-14.004-17.15
				C146.996,74.442,149.088,73.855,151.428,72.146 M128.107,66.802V54.09l11.131-0.001c2.217,0,4.176,0.095,5.758,1.237
				c1.496,1.091,2.383,3.005,2.383,5.119c0,4.219-3.012,6.357-8.951,6.357H128.107z"/>
		</g>
	</g>
</g>
<g>
	<path fill="#FFFFFF" d="M471.822,94.112v-8.7l18.633-15.477c3.695-3.08,9.008-6.775,9.008-12.165c0-5.082-4.928-7.315-9.393-7.315
		c-6.084,0-9.549,3.08-9.625,9.24h-9.316c0.385-4.466,0.77-7.315,3.388-11.087c3.465-5.082,9.624-7.083,15.554-7.083
		c9.932,0,18.863,5.466,18.863,16.246c0,8.546-5.236,12.627-11.318,17.555l-12.319,10.087h24.792v8.7H471.822z"/>
	<path fill="#FFFFFF" d="M564.297,89.415c-3.697,4.158-9.24,6.006-14.707,6.006c-5.467,0-11.087-1.848-14.783-6.006
		c-3.695-4.157-4.389-9.008-4.389-14.397V61.851c0-5.39,0.693-10.241,4.389-14.399c3.696-4.158,9.317-5.928,14.783-5.928
		c5.467,0,11.01,1.771,14.707,5.928c3.695,4.158,4.389,9.009,4.389,14.399v13.167C568.686,80.407,567.992,85.258,564.297,89.415z
		 M557.443,54.074c-1.617-2.618-5.004-3.619-7.93-3.619c-3.004,0-6.16,1.001-7.854,3.619c-1.387,2.079-1.463,4.774-1.463,7.238
		v14.245c0,6.544,2.078,10.856,9.316,10.856c7.314,0,9.393-4.235,9.393-10.856V61.312C558.906,58.848,558.752,56.23,557.443,54.074z
		"/>
	<path fill="#FFFFFF" d="M591.555,94.112v-8.7h19.096V51.918l-20.713,9.24v-9.24l23.484-10.394h6.467v43.888h16.324v8.7H591.555z"/>
	<path fill="#FFFFFF" d="M672.018,95.421c-10.471,0-18.479-6.391-18.94-17.17h9.238c0.924,4.928,4.312,8.162,9.394,8.162
		c5.158,0,9.701-3.157,9.701-8.701c0-2.617-1.154-5.235-3.311-6.775c-2.08-1.463-4.928-1.694-7.393-1.694
		c-1.154,0-2.309,0-3.465,0.077v-8.162c0.771,0.077,1.541,0.077,2.311,0.077c3.85,0,9.086-0.308,9.086-5.39
		c0-3.619-3.234-5.39-6.469-5.39c-3.232,0-5.852,1.386-6.852,4.62h-9.856c1.617-8.854,7.93-13.551,16.785-13.551
		c7.853,0,15.938,4.389,15.938,13.089c0,4.389-1.693,7.238-5.236,9.779c5.236,2.849,8.008,7.391,8.008,13.397
		C690.959,88.415,682.26,95.421,672.018,95.421z"/>
</g>
</svg>
